/* XPM */
static char * LINK_xpm[] = {
"16 16 160 2",
"  	c None",
". 	c #8D8D8D",
"+ 	c #5C5C5C",
"@ 	c #6D6D6D",
"# 	c #C9C9C9",
"$ 	c #FAFAFA",
"% 	c #FFFFFF",
"& 	c #515353",
"* 	c #2D3A3D",
"= 	c #505051",
"- 	c #4C5757",
"; 	c #485858",
"> 	c #3A4041",
", 	c #3F3F3F",
"' 	c #414141",
") 	c #888888",
"! 	c #D0D0D0",
"~ 	c #F8F8F8",
"{ 	c #494B4B",
"] 	c #5B6C6E",
"^ 	c #C2B6B6",
"/ 	c #C1D2D1",
"( 	c #BCD7D8",
"_ 	c #889294",
": 	c #9C9C9C",
"< 	c #909090",
"[ 	c #545454",
"} 	c #7C7C7C",
"| 	c #494D4D",
"1 	c #627C7E",
"2 	c #D6CECE",
"3 	c #CDF1F0",
"4 	c #CAE2E2",
"5 	c #979898",
"6 	c #8C8C8C",
"7 	c #5E5E5E",
"8 	c #616161",
"9 	c #898989",
"0 	c #A4A4A4",
"a 	c #BCBCBC",
"b 	c #EBEBEB",
"c 	c #4A4B4A",
"d 	c #667171",
"e 	c #D9C8C7",
"f 	c #D9EAE9",
"g 	c #B3C1C0",
"h 	c #464848",
"i 	c #283031",
"j 	c #373434",
"k 	c #323B3B",
"l 	c #313838",
"m 	c #292B2B",
"n 	c #303030",
"o 	c #494949",
"p 	c #A1A1A1",
"q 	c #E4E4E4",
"r 	c #FDFDFD",
"s 	c #494C4C",
"t 	c #63787A",
"u 	c #D7CCCB",
"v 	c #D1EFEE",
"w 	c #A2BDB9",
"x 	c #3F4647",
"y 	c #6D868A",
"z 	c #BFA8A6",
"A 	c #ACCBCE",
"B 	c #A5C1C3",
"C 	c #71787A",
"D 	c #6C6C6C",
"E 	c #E0E0E0",
"F 	c #424847",
"G 	c #80979B",
"H 	c #E0C6C1",
"I 	c #C9F0F7",
"J 	c #C0E7E8",
"K 	c #869092",
"L 	c #D7D7D7",
"M 	c #555555",
"N 	c #606060",
"O 	c #B4B4B4",
"P 	c #ABBCB9",
"Q 	c #424644",
"R 	c #838F91",
"S 	c #E1C1BC",
"T 	c #D2E8EF",
"U 	c #CFE8E8",
"V 	c #8D9494",
"W 	c #9B9B9B",
"X 	c #979797",
"Y 	c #4D4D4D",
"Z 	c #585858",
"` 	c #AEAEAE",
" .	c #9DBEBA",
"..	c #424949",
"+.	c #7E9B9F",
"@.	c #DFC8C4",
"#.	c #C4F4FB",
"$.	c #C6F9F9",
"%.	c #B2E8E5",
"&.	c #A5E1DC",
"*.	c #9FD5D0",
"=.	c #5C6E6C",
"-.	c #494C4B",
";.	c #657475",
">.	c #D8CAC9",
",.	c #D5ECEB",
"'.	c #A7BDB9",
").	c #424745",
"!.	c #819396",
"~.	c #E0C3BE",
"{.	c #CDECF3",
"].	c #D4FAFA",
"^.	c #D6FCFC",
"/.	c #D7FDFD",
"(.	c #CDEFEF",
"_.	c #6E7A7A",
":.	c #454848",
"<.	c #36494D",
"[.	c #767375",
"}.	c #738383",
"|.	c #697977",
"1.	c #777778",
"2.	c #464849",
"3.	c #4C4B4C",
"4.	c #4C4C4C",
"5.	c #C7FDFD",
"6.	c #C7FEFE",
"7.	c #C8FEFE",
"8.	c #BFF0F0",
"9.	c #697A7A",
"0.	c #D8D8D8",
"a.	c #B8B8B8",
"b.	c #929292",
"c.	c #DBF9F9",
"d.	c #DEFBFB",
"e.	c #DEFCFC",
"f.	c #D4EEEE",
"g.	c #707979",
"h.	c #B6B6B6",
"i.	c #3C4343",
"j.	c #577277",
"k.	c #9C8D8C",
"l.	c #8AACB0",
"m.	c #8AB0B0",
"n.	c #85A7A7",
"o.	c #4C5858",
"p.	c #5D5E5E",
"q.	c #3E4345",
"r.	c #474446",
"s.	c #484848",
"t.	c #474747",
"u.	c #444444",
"v.	c #797979",
"w.	c #B3B3B3",
"x.	c #F2F2F2",
"y.	c #B5B5B5",
"z.	c #959595",
"A.	c #989898",
"B.	c #B2B2B2",
"C.	c #D9D9D9",
". + + + + + + @ # $ % % % % % % ",
"& * = - ; > , ' ) ! ~ % % % % % ",
"{ ] ^ / ( _ : < [ } ! $ % % % % ",
"| 1 2 3 4 5 6 . 7 8 9 0 a b % % ",
"c d e f g h i j k l m n o p q r ",
"s t u v w x y z A B C p D 7 : E ",
"s t u v w F G H I J K L a M N O ",
"c d e f P Q R S T U V W X Y Z ` ",
"| 1 2 3  ...+.@.#.$.%.&.*.=.Z ` ",
"-.;.>.,.'.).!.~.{.].^./.(._.Z ` ",
":.<.[.}.|.).!.~.{.].^./.(._.Z ` ",
"1.2.3.4.M ..+.@.#.5.6.7.8.9.Z ` ",
"0.a.a.a.b.Q R S T c.d.e.f.g.Z ` ",
"% % % % h.i.j.k.l.m.m.m.n.o.Z ` ",
"% % % % ! p.q.r.s.s.s.s.t.u.v.w.",
"% % % % x.y.z.z.z.z.z.z.z.A.B.C."};
